<svg width="19" height="21" viewBox="0 0 19 21" fill="none" xmlns="http://www.w3.org/2000/svg">
    <path fill-rule="evenodd" clip-rule="evenodd" d="M18.4936 4.23867C18.3848 1.89122 16.4478 0.0220032 14.0734 0.0220032H9.18938L8.98056 0.026828C6.62755 0.135788 4.75438 2.07659 4.75438 4.456V5.389L4.76123 5.49077C4.81089 5.85685 5.12469 6.139 5.50438 6.139C5.9186 6.139 6.25438 5.80322 6.25438 5.389V4.456L6.25936 4.28356C6.34859 2.74298 7.62564 1.522 9.18938 1.522H14.0734L14.2453 1.52697C15.781 1.61591 16.9984 2.88892 16.9984 4.447V15.587L16.9934 15.7594C16.9041 17.3 15.6263 18.522 14.0634 18.522H9.17838L9.00661 18.517C7.47199 18.428 6.25438 17.1544 6.25438 15.597V14.655L6.24754 14.5532C6.19788 14.1872 5.88408 13.905 5.50438 13.905C5.09017 13.905 4.75438 14.2408 4.75438 14.655V15.597L4.75949 15.8114C4.87131 18.1552 6.80715 20.022 9.17838 20.022H14.0634L14.2721 20.0172C16.6245 19.9082 18.4984 17.9662 18.4984 15.587V4.447L18.4936 4.23867ZM9.35337 6.57656C9.61909 6.30975 10.0357 6.28469 10.3298 6.50194L10.414 6.57439L13.342 9.49039C13.6096 9.75688 13.6339 10.1749 13.415 10.469L13.4123 10.4721C13.3914 10.5 13.3685 10.5263 13.344 10.551L13.342 10.5532L10.414 13.4692C10.1205 13.7615 9.64566 13.7605 9.35337 13.467C9.08765 13.2002 9.0643 12.7835 9.28275 12.4904L9.35555 12.4064L10.9963 10.7718H0.771484C0.357271 10.7718 0.0214844 10.436 0.0214844 10.0218C0.0214844 9.64211 0.303638 9.32831 0.669714 9.27865L0.771484 9.2718H10.9961L9.35555 7.63722C9.08873 7.3715 9.06367 6.95489 9.28092 6.66083L9.35337 6.57656Z" fill="#96A0B5"/>
</svg>
