<svg width="11" height="11" viewBox="0 0 11 11" fill="none" xmlns="http://www.w3.org/2000/svg">
    <path d="M3.896 8.61853H3.6745C1.90253 8.61853 1.01654 8.17554 1.01654 5.96057V3.74561C1.01654 1.97363 1.90253 1.08765 3.6745 1.08765H7.21845C8.99042 1.08765 9.87641 1.97363 9.87641 3.74561V5.96057C9.87641 7.73254 8.99042 8.61853 7.21845 8.61853H6.99695C6.85962 8.61853 6.72672 8.68498 6.64255 8.79573L5.97806 9.68171C5.68569 10.0715 5.20726 10.0715 4.91488 9.68171L4.25039 8.79573C4.17951 8.69827 4.0156 8.61853 3.896 8.61853Z" stroke="#96A0B5" stroke-width="0.996735" stroke-miterlimit="10" stroke-linecap="round" stroke-linejoin="round"/>
    <path d="M7.21693 5.07458H7.22091" stroke="#96A0B5" stroke-width="1.32898" stroke-linecap="round" stroke-linejoin="round"/>
    <path d="M5.44447 5.07458H5.44845" stroke="#96A0B5" stroke-width="1.32898" stroke-linecap="round" stroke-linejoin="round"/>
    <path d="M3.67207 5.07458H3.67605" stroke="#96A0B5" stroke-width="1.32898" stroke-linecap="round" stroke-linejoin="round"/>
</svg>
