<svg width="23" height="21" viewBox="0 0 23 21" fill="none" xmlns="http://www.w3.org/2000/svg">
    <path fill-rule="evenodd" clip-rule="evenodd" d="M6.23319 16.5721C6.02397 16.7116 5.79731 16.9789 5.71013 17.0952L5.40502 20.0334L7.19213 20.2513L8.71772 15.6568C9.0519 15.6568 9.79871 15.6916 10.1125 15.8311C10.4885 15.9982 10.5042 16.2053 10.5432 16.721C10.5449 16.7434 10.5466 16.7664 10.5484 16.7901C10.5833 17.2434 10.0604 17.9993 9.92968 18.0719L9.71174 20.3821L22.3172 19.231V12.9979C22.2591 13.0415 21.8378 13.1548 20.6173 13.2594C19.0917 13.3902 17.8277 13.2158 16.2585 12.9979C15.0031 12.8235 13.3526 11.821 12.6842 11.3415C12.6261 11.2543 12.7714 11.1061 13.8175 11.2108C14.8637 11.3154 16.0551 10.9638 16.52 10.7749C17.4063 10.4407 19.3358 9.38877 19.9635 7.85447C20.5912 6.32016 20.4865 4.54176 20.3558 3.84435C20.2105 2.95806 19.4316 1.0859 17.5225 0.531645C16.1713 0.139349 15.1252 0.270113 14.515 0.575231C14.4022 0.645709 14.3065 0.704107 14.2232 0.754996C13.7909 1.01884 13.6894 1.08081 13.2509 1.57776C12.7278 2.17056 12.6988 3.21959 12.815 3.53923L12.0304 3.71359C12.0595 3.64094 12.0479 3.38232 11.7689 2.929C11.4899 2.47568 10.7809 2.15894 10.4612 2.05723C10.0254 1.98459 8.92694 1.90032 8.02031 2.14441C7.11367 2.3885 5.92807 3.35035 5.4486 3.80076C5.40501 3.64094 5.16092 3.4259 4.53325 3.84435C3.74866 4.36741 3.57431 4.84688 3.57431 5.19559C3.57431 5.47023 3.96864 5.73925 4.17496 5.84457C4.14417 5.83592 4.0484 5.84549 3.83584 5.93658C3.59174 6.0412 3.50166 6.27076 3.48713 6.37247C3.44354 6.387 3.31278 6.44221 3.13843 6.54682C2.96407 6.65143 2.89143 7.28782 2.8769 7.59294H0.741075C0.639369 7.82541 0.531851 8.36881 0.915427 8.68264C1.3949 9.07494 2.09751 8.89928 2.26666 8.85699C2.33467 8.83999 2.42258 8.78983 2.5278 8.72979C2.69232 8.6359 2.89916 8.51787 3.13843 8.4647C3.45226 8.39496 3.6179 8.58094 3.66149 8.68264C3.58884 8.68264 3.39996 8.67392 3.2256 8.63905C3.00766 8.59546 2.65896 8.90058 2.96407 9.29288C3.15567 9.53921 3.36444 9.56212 3.50407 9.57744C3.58681 9.58651 3.64527 9.59293 3.66149 9.64158C3.70507 9.77235 3.87943 10.1211 4.18455 10.0775C4.42864 10.0426 4.51872 10.1211 4.53325 10.1646C4.4606 10.1792 4.28916 10.2518 4.18455 10.4262C4.07993 10.6005 4.19907 10.7603 4.27172 10.8185C4.3589 10.9202 4.59427 11.1672 4.83837 11.3415C5.10516 11.5321 5.172 11.4894 5.33028 11.3882C5.35302 11.3737 5.37764 11.3579 5.40502 11.3415C5.57937 11.2369 5.91354 11.2979 6.05884 11.3415C6.05884 11.2979 6.17217 11.2979 6.62549 11.6466C7.19213 12.0825 7.6716 12.1697 8.45619 12.0389C8.84735 11.9737 8.98932 11.8002 9.08737 11.6804C9.18598 11.5598 9.24015 11.4936 9.45872 11.6466C9.80743 11.8907 10.6792 12.9107 11.0715 13.3902H7.75878C7.41007 13.3902 7.23572 13.6517 7.19213 13.7825C6.95966 14.6542 6.44242 16.4326 6.23319 16.5721ZM13.8612 3.97509L13.774 5.28274C13.8757 5.29727 14.0878 5.39607 14.1227 5.67503C14.1576 5.954 14.1663 6.11091 14.1663 6.1545C14.3116 6.32885 14.8375 6.60782 15.779 6.32885C16.7205 6.04989 17.0431 5.89297 17.479 5.4135C17.7841 5.15197 18.0282 4.34995 17.7841 3.5828C17.479 2.62385 17.0431 2.40591 16.2149 2.1008C15.5524 1.8567 14.6603 2.28968 14.297 2.53668C14.1663 2.60933 13.9309 2.85923 14.0355 3.27768C14.1401 3.69613 14.2244 3.8298 14.2535 3.84433C14.3116 3.9315 14.3145 4.0797 13.8612 3.97509Z" fill="#141A24"/>
</svg>
